<?xml version="1.0" standalone="no"?>
<!DOCTYPE svg PUBLIC "-//W3C//DTD SVG 20010904//EN"
 "http://www.w3.org/TR/2001/REC-SVG-20010904/DTD/svg10.dtd">
<svg version="1.0" xmlns="http://www.w3.org/2000/svg"
 width="320.000000pt" height="320.000000pt" viewBox="0 0 320.000000 320.000000"
 preserveAspectRatio="xMidYMid meet">
<metadata>
Created by potrace 1.11, written by Peter Selinger 2001-2013
</metadata>
<g transform="translate(0.000000,320.000000) scale(0.100000,-0.100000)"
fill="#000000" stroke="none">
<path d="M46 2415 c-18 -9 -21 -21 -22 -85 -2 -99 5 -132 28 -137 17 -5 18
-28 18 -509 l0 -504 -23 0 c-35 0 -47 -19 -47 -71 0 -41 3 -49 22 -55 13 -4
112 -7 221 -6 178 1 197 -1 198 -16 6 -70 15 -97 51 -149 80 -117 255 -136
364 -40 41 35 75 104 82 164 l5 43 461 1 c465 2 824 2 927 0 l55 -1 3 -42 c3
-57 26 -106 69 -151 50 -51 86 -68 157 -74 140 -12 261 97 268 242 l2 30 135
2 c185 3 180 1 180 68 0 45 -3 55 -20 60 -19 6 -20 15 -20 221 0 211 -5 247
-34 266 -6 4 -132 8 -281 8 l-270 0 2 222 c2 123 3 237 3 255 0 30 3 32 38 35
l37 3 3 58 3 57 59 0 60 0 0 -50 c0 -37 -5 -54 -22 -72 -22 -22 -23 -29 -22
-195 1 -123 5 -177 14 -188 18 -22 113 -21 131 2 20 23 22 339 3 370 -9 14
-14 51 -14 97 0 65 -3 78 -24 100 -21 24 -30 26 -103 26 -50 0 -84 5 -92 13
-16 16 -2573 18 -2605 2z"/>
</g>
</svg>
